<mxfile host="app.diagrams.net" modified="2024-03-28T10:48:54.231Z" agent="Mozilla/5.0 (Macintosh; Intel Mac OS X 10_15_7) AppleWebKit/537.36 (KHTML, like Gecko) Chrome/122.0.0.0 Safari/537.36" etag="2QbVmtN_If1p7CDhX8sQ" version="23.1.1" type="device">
  <diagram name="Seite-1" id="A_QTLWXS6pBwX1mW2smI">
    <mxGraphModel dx="658" dy="381" grid="1" gridSize="10" guides="1" tooltips="1" connect="1" arrows="1" fold="1" page="1" pageScale="1" pageWidth="827" pageHeight="1169" math="0" shadow="0">
      <root>
        <mxCell id="0" />
        <mxCell id="1" parent="0" />
        <mxCell id="SViAUY5zbydb0TpT5OkE-3" value="GPU-Backend" style="rounded=0;whiteSpace=wrap;html=1;" parent="1" vertex="1">
          <mxGeometry x="440" y="139" width="120" height="51" as="geometry" />
        </mxCell>
        <mxCell id="SViAUY5zbydb0TpT5OkE-4" value="Incar" style="rounded=0;whiteSpace=wrap;html=1;" parent="1" vertex="1">
          <mxGeometry x="440" y="200" width="120" height="40" as="geometry" />
        </mxCell>
        <mxCell id="SViAUY5zbydb0TpT5OkE-8" value="" style="endArrow=classic;html=1;rounded=0;entryX=-0.029;entryY=0.345;entryDx=0;entryDy=0;entryPerimeter=0;exitX=1.034;exitY=0.245;exitDx=0;exitDy=0;exitPerimeter=0;" parent="1" edge="1">
          <mxGeometry width="50" height="50" relative="1" as="geometry">
            <mxPoint x="236.08000000000004" y="59.80000000000001" as="sourcePoint" />
            <mxPoint x="439.52" y="58.950000000000045" as="targetPoint" />
          </mxGeometry>
        </mxCell>
        <mxCell id="SViAUY5zbydb0TpT5OkE-42" value="speaker_added" style="edgeLabel;html=1;align=center;verticalAlign=middle;resizable=0;points=[];" parent="SViAUY5zbydb0TpT5OkE-8" vertex="1" connectable="0">
          <mxGeometry x="-0.0316" y="1" relative="1" as="geometry">
            <mxPoint as="offset" />
          </mxGeometry>
        </mxCell>
        <mxCell id="SViAUY5zbydb0TpT5OkE-9" value="" style="endArrow=classic;html=1;rounded=0;exitX=1.009;exitY=0.046;exitDx=0;exitDy=0;exitPerimeter=0;entryX=0;entryY=0.25;entryDx=0;entryDy=0;" parent="1" edge="1">
          <mxGeometry width="50" height="50" relative="1" as="geometry">
            <mxPoint x="240" y="146" as="sourcePoint" />
            <mxPoint x="439" y="147" as="targetPoint" />
          </mxGeometry>
        </mxCell>
        <mxCell id="SViAUY5zbydb0TpT5OkE-53" value="initiat_training" style="edgeLabel;html=1;align=center;verticalAlign=middle;resizable=0;points=[];" parent="SViAUY5zbydb0TpT5OkE-9" vertex="1" connectable="0">
          <mxGeometry x="-0.0147" relative="1" as="geometry">
            <mxPoint as="offset" />
          </mxGeometry>
        </mxCell>
        <mxCell id="SViAUY5zbydb0TpT5OkE-10" value="" style="endArrow=classic;html=1;rounded=0;exitX=1.009;exitY=0.046;exitDx=0;exitDy=0;exitPerimeter=0;entryX=0;entryY=0.25;entryDx=0;entryDy=0;" parent="1" edge="1">
          <mxGeometry width="50" height="50" relative="1" as="geometry">
            <mxPoint x="241" y="210" as="sourcePoint" />
            <mxPoint x="440" y="211" as="targetPoint" />
          </mxGeometry>
        </mxCell>
        <mxCell id="SViAUY5zbydb0TpT5OkE-41" value="toggle_recognition" style="edgeLabel;html=1;align=center;verticalAlign=middle;resizable=0;points=[];" parent="SViAUY5zbydb0TpT5OkE-10" vertex="1" connectable="0">
          <mxGeometry x="0.0028" relative="1" as="geometry">
            <mxPoint as="offset" />
          </mxGeometry>
        </mxCell>
        <mxCell id="SViAUY5zbydb0TpT5OkE-13" value="" style="endArrow=classic;html=1;rounded=0;exitX=0;exitY=0.75;exitDx=0;exitDy=0;" parent="1" edge="1">
          <mxGeometry width="50" height="50" relative="1" as="geometry">
            <mxPoint x="440" y="230" as="sourcePoint" />
            <mxPoint x="240" y="230" as="targetPoint" />
          </mxGeometry>
        </mxCell>
        <mxCell id="SViAUY5zbydb0TpT5OkE-38" value="audio_file" style="edgeLabel;html=1;align=center;verticalAlign=middle;resizable=0;points=[];" parent="SViAUY5zbydb0TpT5OkE-13" vertex="1" connectable="0">
          <mxGeometry x="0.0141" y="-1" relative="1" as="geometry">
            <mxPoint as="offset" />
          </mxGeometry>
        </mxCell>
        <mxCell id="SViAUY5zbydb0TpT5OkE-22" value="" style="endArrow=classic;html=1;rounded=0;entryX=1.009;entryY=0.223;entryDx=0;entryDy=0;entryPerimeter=0;exitX=-0.006;exitY=0.449;exitDx=0;exitDy=0;exitPerimeter=0;" parent="1" edge="1">
          <mxGeometry width="50" height="50" relative="1" as="geometry">
            <mxPoint x="439.2800000000001" y="71.38999999999999" as="sourcePoint" />
            <mxPoint x="241.07999999999998" y="71.06" as="targetPoint" />
          </mxGeometry>
        </mxCell>
        <mxCell id="SViAUY5zbydb0TpT5OkE-23" value="add_speaker" style="edgeLabel;html=1;align=center;verticalAlign=middle;resizable=0;points=[];" parent="SViAUY5zbydb0TpT5OkE-22" vertex="1" connectable="0">
          <mxGeometry x="0.0394" relative="1" as="geometry">
            <mxPoint y="-1" as="offset" />
          </mxGeometry>
        </mxCell>
        <mxCell id="SViAUY5zbydb0TpT5OkE-24" value="" style="endArrow=classic;html=1;rounded=0;exitX=0;exitY=0.75;exitDx=0;exitDy=0;edgeStyle=orthogonalEdgeStyle;entryX=1.008;entryY=0.149;entryDx=0;entryDy=0;entryPerimeter=0;" parent="1" edge="1">
          <mxGeometry width="50" height="50" relative="1" as="geometry">
            <mxPoint x="440" y="82" as="sourcePoint" />
            <mxPoint x="241" y="82" as="targetPoint" />
          </mxGeometry>
        </mxCell>
        <mxCell id="SViAUY5zbydb0TpT5OkE-25" value="get_speakers" style="edgeLabel;html=1;align=center;verticalAlign=middle;resizable=0;points=[];" parent="SViAUY5zbydb0TpT5OkE-24" vertex="1" connectable="0">
          <mxGeometry x="0.0394" relative="1" as="geometry">
            <mxPoint as="offset" />
          </mxGeometry>
        </mxCell>
        <mxCell id="SViAUY5zbydb0TpT5OkE-26" value="" style="endArrow=classic;html=1;rounded=0;exitX=0;exitY=0.75;exitDx=0;exitDy=0;edgeStyle=orthogonalEdgeStyle;entryX=1.008;entryY=0.149;entryDx=0;entryDy=0;entryPerimeter=0;" parent="1" edge="1">
          <mxGeometry width="50" height="50" relative="1" as="geometry">
            <mxPoint x="440" y="94" as="sourcePoint" />
            <mxPoint x="241" y="94" as="targetPoint" />
          </mxGeometry>
        </mxCell>
        <mxCell id="SViAUY5zbydb0TpT5OkE-27" value="remove_speaker" style="edgeLabel;html=1;align=center;verticalAlign=middle;resizable=0;points=[];" parent="SViAUY5zbydb0TpT5OkE-26" vertex="1" connectable="0">
          <mxGeometry x="0.0394" relative="1" as="geometry">
            <mxPoint as="offset" />
          </mxGeometry>
        </mxCell>
        <mxCell id="SViAUY5zbydb0TpT5OkE-28" value="" style="endArrow=classic;html=1;rounded=0;exitX=0;exitY=0.75;exitDx=0;exitDy=0;edgeStyle=orthogonalEdgeStyle;entryX=1.008;entryY=0.149;entryDx=0;entryDy=0;entryPerimeter=0;" parent="1" edge="1">
          <mxGeometry width="50" height="50" relative="1" as="geometry">
            <mxPoint x="440" y="106" as="sourcePoint" />
            <mxPoint x="241" y="106" as="targetPoint" />
          </mxGeometry>
        </mxCell>
        <mxCell id="SViAUY5zbydb0TpT5OkE-29" value="start_training" style="edgeLabel;html=1;align=center;verticalAlign=middle;resizable=0;points=[];" parent="SViAUY5zbydb0TpT5OkE-28" vertex="1" connectable="0">
          <mxGeometry x="0.0394" relative="1" as="geometry">
            <mxPoint as="offset" />
          </mxGeometry>
        </mxCell>
        <mxCell id="SViAUY5zbydb0TpT5OkE-30" value="" style="endArrow=classic;html=1;rounded=0;exitX=0;exitY=0.75;exitDx=0;exitDy=0;edgeStyle=orthogonalEdgeStyle;entryX=1.008;entryY=0.149;entryDx=0;entryDy=0;entryPerimeter=0;" parent="1" edge="1">
          <mxGeometry width="50" height="50" relative="1" as="geometry">
            <mxPoint x="440" y="118" as="sourcePoint" />
            <mxPoint x="241" y="118" as="targetPoint" />
          </mxGeometry>
        </mxCell>
        <mxCell id="SViAUY5zbydb0TpT5OkE-31" value="startStop" style="edgeLabel;html=1;align=center;verticalAlign=middle;resizable=0;points=[];" parent="SViAUY5zbydb0TpT5OkE-30" vertex="1" connectable="0">
          <mxGeometry x="0.0394" relative="1" as="geometry">
            <mxPoint as="offset" />
          </mxGeometry>
        </mxCell>
        <mxCell id="SViAUY5zbydb0TpT5OkE-33" value="" style="endArrow=classic;html=1;rounded=0;exitX=0;exitY=0.75;exitDx=0;exitDy=0;edgeStyle=orthogonalEdgeStyle;entryX=1.008;entryY=0.149;entryDx=0;entryDy=0;entryPerimeter=0;" parent="1" edge="1">
          <mxGeometry width="50" height="50" relative="1" as="geometry">
            <mxPoint x="439" y="170" as="sourcePoint" />
            <mxPoint x="240" y="170" as="targetPoint" />
          </mxGeometry>
        </mxCell>
        <mxCell id="SViAUY5zbydb0TpT5OkE-34" value="model_chunk" style="edgeLabel;html=1;align=center;verticalAlign=middle;resizable=0;points=[];" parent="SViAUY5zbydb0TpT5OkE-33" vertex="1" connectable="0">
          <mxGeometry x="0.0394" relative="1" as="geometry">
            <mxPoint as="offset" />
          </mxGeometry>
        </mxCell>
        <mxCell id="SViAUY5zbydb0TpT5OkE-36" value="" style="endArrow=classic;html=1;rounded=0;exitX=0;exitY=0.75;exitDx=0;exitDy=0;edgeStyle=orthogonalEdgeStyle;entryX=1.008;entryY=0.149;entryDx=0;entryDy=0;entryPerimeter=0;" parent="1" edge="1">
          <mxGeometry width="50" height="50" relative="1" as="geometry">
            <mxPoint x="440" y="182" as="sourcePoint" />
            <mxPoint x="241" y="182" as="targetPoint" />
            <Array as="points">
              <mxPoint x="371" y="182" />
              <mxPoint x="371" y="182" />
            </Array>
          </mxGeometry>
        </mxCell>
        <mxCell id="SViAUY5zbydb0TpT5OkE-37" value="trained_model" style="edgeLabel;html=1;align=center;verticalAlign=middle;resizable=0;points=[];" parent="SViAUY5zbydb0TpT5OkE-36" vertex="1" connectable="0">
          <mxGeometry x="0.0394" relative="1" as="geometry">
            <mxPoint as="offset" />
          </mxGeometry>
        </mxCell>
        <mxCell id="SViAUY5zbydb0TpT5OkE-43" value="" style="endArrow=classic;html=1;rounded=0;exitX=0.989;exitY=0.123;exitDx=0;exitDy=0;exitPerimeter=0;" parent="1" source="SViAUY5zbydb0TpT5OkE-1" edge="1">
          <mxGeometry width="50" height="50" relative="1" as="geometry">
            <mxPoint x="250" y="48" as="sourcePoint" />
            <mxPoint x="439" y="48" as="targetPoint" />
          </mxGeometry>
        </mxCell>
        <mxCell id="SViAUY5zbydb0TpT5OkE-44" value="load_speaker" style="edgeLabel;html=1;align=center;verticalAlign=middle;resizable=0;points=[];" parent="SViAUY5zbydb0TpT5OkE-43" vertex="1" connectable="0">
          <mxGeometry x="-0.0316" y="1" relative="1" as="geometry">
            <mxPoint as="offset" />
          </mxGeometry>
        </mxCell>
        <mxCell id="SViAUY5zbydb0TpT5OkE-46" value="" style="endArrow=classic;html=1;rounded=0;exitX=0.991;exitY=0.075;exitDx=0;exitDy=0;exitPerimeter=0;entryX=-0.021;entryY=0.283;entryDx=0;entryDy=0;entryPerimeter=0;" parent="1" source="SViAUY5zbydb0TpT5OkE-1" edge="1">
          <mxGeometry width="50" height="50" relative="1" as="geometry">
            <mxPoint x="242" y="36" as="sourcePoint" />
            <mxPoint x="439.48" y="36.78999999999999" as="targetPoint" />
          </mxGeometry>
        </mxCell>
        <mxCell id="SViAUY5zbydb0TpT5OkE-47" value="status" style="edgeLabel;html=1;align=center;verticalAlign=middle;resizable=0;points=[];" parent="SViAUY5zbydb0TpT5OkE-46" vertex="1" connectable="0">
          <mxGeometry x="-0.0316" y="1" relative="1" as="geometry">
            <mxPoint as="offset" />
          </mxGeometry>
        </mxCell>
        <mxCell id="SViAUY5zbydb0TpT5OkE-50" value="" style="endArrow=classic;html=1;rounded=0;exitX=1.009;exitY=0.046;exitDx=0;exitDy=0;exitPerimeter=0;entryX=-0.002;entryY=0.112;entryDx=0;entryDy=0;entryPerimeter=0;" parent="1" edge="1">
          <mxGeometry width="50" height="50" relative="1" as="geometry">
            <mxPoint x="240" y="25" as="sourcePoint" />
            <mxPoint x="439.7600000000001" y="25.56000000000006" as="targetPoint" />
          </mxGeometry>
        </mxCell>
        <mxCell id="SViAUY5zbydb0TpT5OkE-51" value="training_progress" style="edgeLabel;html=1;align=center;verticalAlign=middle;resizable=0;points=[];" parent="SViAUY5zbydb0TpT5OkE-50" vertex="1" connectable="0">
          <mxGeometry x="-0.0316" y="1" relative="1" as="geometry">
            <mxPoint as="offset" />
          </mxGeometry>
        </mxCell>
        <mxCell id="SViAUY5zbydb0TpT5OkE-54" value="" style="endArrow=classic;html=1;rounded=0;exitX=1.009;exitY=0.046;exitDx=0;exitDy=0;exitPerimeter=0;entryX=0;entryY=0.25;entryDx=0;entryDy=0;" parent="1" edge="1">
          <mxGeometry width="50" height="50" relative="1" as="geometry">
            <mxPoint x="240" y="158" as="sourcePoint" />
            <mxPoint x="439" y="159" as="targetPoint" />
          </mxGeometry>
        </mxCell>
        <mxCell id="SViAUY5zbydb0TpT5OkE-55" value="model_chunk_ack" style="edgeLabel;html=1;align=center;verticalAlign=middle;resizable=0;points=[];" parent="SViAUY5zbydb0TpT5OkE-54" vertex="1" connectable="0">
          <mxGeometry x="-0.0147" relative="1" as="geometry">
            <mxPoint as="offset" />
          </mxGeometry>
        </mxCell>
        <mxCell id="SViAUY5zbydb0TpT5OkE-2" value="Frontend" style="rounded=0;whiteSpace=wrap;html=1;" parent="1" vertex="1">
          <mxGeometry x="440" y="20" width="120" height="110" as="geometry" />
        </mxCell>
        <mxCell id="SViAUY5zbydb0TpT5OkE-1" value="Backend" style="rounded=0;whiteSpace=wrap;html=1;" parent="1" vertex="1">
          <mxGeometry x="120" y="20" width="120" height="220" as="geometry" />
        </mxCell>
      </root>
    </mxGraphModel>
  </diagram>
</mxfile>
